<?xml version="1.0" encoding="UTF-8"?>
<svg width="24" height="24" viewBox="0 0 24 24" fill="none" xmlns="http://www.w3.org/2000/svg">
  <path d="M18.58 5H5.42L6.3 8H17.7L18.58 5Z" fill="#1e40af"/>
  <path d="M19 11C19 9.9 18.1 9 17 9H7C5.9 9 5 9.9 5 11V16H6.5C6.5 16.83 7.17 17.5 8 17.5C8.83 17.5 9.5 16.83 9.5 16H14.5C14.5 16.83 15.17 17.5 16 17.5C16.83 17.5 17.5 16.83 17.5 16H19V11Z" fill="#1e40af"/>
  <path d="M7.5 15C7.5 15.83 6.83 16.5 6 16.5C5.17 16.5 4.5 15.83 4.5 15C4.5 14.17 5.17 13.5 6 13.5C6.83 13.5 7.5 14.17 7.5 15Z" fill="#1e3a8a"/>
  <path d="M19.5 15C19.5 15.83 18.83 16.5 18 16.5C17.17 16.5 16.5 15.83 16.5 15C16.5 14.17 17.17 13.5 18 13.5C18.83 13.5 19.5 14.17 19.5 15Z" fill="#1e3a8a"/>
  <path d="M20 10H4V12H20V10Z" fill="#1e3a8a"/>
</svg>
